<mxfile host="app.diagrams.net" modified="2024-04-03T15:42:11.463Z" agent="Mozilla/5.0 (Windows NT 10.0; Win64; x64) AppleWebKit/537.36 (KHTML, like Gecko) Chrome/112.0.0.0 Safari/537.36" etag="vbBqtbkhY22ffrWEx4_9" version="24.2.2" type="github">
  <diagram id="C5RBs43oDa-KdzZeNtuy" name="Page-1">
    <mxGraphModel dx="1400" dy="2066" grid="1" gridSize="10" guides="1" tooltips="1" connect="1" arrows="1" fold="1" page="1" pageScale="1" pageWidth="827" pageHeight="1169" math="0" shadow="1">
      <root>
        <mxCell id="WIyWlLk6GJQsqaUBKTNV-0" />
        <mxCell id="WIyWlLk6GJQsqaUBKTNV-1" parent="WIyWlLk6GJQsqaUBKTNV-0" />
        <mxCell id="WIyWlLk6GJQsqaUBKTNV-11" value="Application" style="rounded=1;whiteSpace=wrap;html=1;fontSize=12;glass=0;strokeWidth=1;shadow=0;" parent="WIyWlLk6GJQsqaUBKTNV-1" vertex="1">
          <mxGeometry x="120" y="-1100" width="120" height="40" as="geometry" />
        </mxCell>
        <mxCell id="uQWh4zlJFBgXrBR1a3Rs-1" value="Chatbot" style="rounded=1;whiteSpace=wrap;html=1;" vertex="1" parent="WIyWlLk6GJQsqaUBKTNV-1">
          <mxGeometry x="460" y="-1100" width="120" height="40" as="geometry" />
        </mxCell>
        <mxCell id="uQWh4zlJFBgXrBR1a3Rs-3" value="" style="endArrow=classic;html=1;rounded=0;exitX=1;exitY=0.5;exitDx=0;exitDy=0;entryX=0;entryY=0.5;entryDx=0;entryDy=0;" edge="1" parent="WIyWlLk6GJQsqaUBKTNV-1" source="WIyWlLk6GJQsqaUBKTNV-11" target="uQWh4zlJFBgXrBR1a3Rs-1">
          <mxGeometry width="50" height="50" relative="1" as="geometry">
            <mxPoint x="440" y="-930" as="sourcePoint" />
            <mxPoint x="490" y="-980" as="targetPoint" />
          </mxGeometry>
        </mxCell>
        <mxCell id="uQWh4zlJFBgXrBR1a3Rs-6" value="&lt;span style=&quot;font-size: 14px;&quot;&gt;User prompts some&lt;/span&gt;&lt;div&gt;&lt;span style=&quot;font-size: 14px;&quot;&gt;&amp;nbsp;functionality addition&lt;/span&gt;&lt;/div&gt;" style="edgeLabel;html=1;align=center;verticalAlign=middle;resizable=0;points=[];" vertex="1" connectable="0" parent="uQWh4zlJFBgXrBR1a3Rs-3">
          <mxGeometry x="-0.1467" y="1" relative="1" as="geometry">
            <mxPoint x="1" as="offset" />
          </mxGeometry>
        </mxCell>
        <mxCell id="uQWh4zlJFBgXrBR1a3Rs-8" value="" style="endArrow=classic;html=1;rounded=0;exitX=0.598;exitY=1.083;exitDx=0;exitDy=0;exitPerimeter=0;" edge="1" parent="WIyWlLk6GJQsqaUBKTNV-1" source="uQWh4zlJFBgXrBR1a3Rs-1">
          <mxGeometry width="50" height="50" relative="1" as="geometry">
            <mxPoint x="440" y="-930" as="sourcePoint" />
            <mxPoint x="532" y="-880" as="targetPoint" />
          </mxGeometry>
        </mxCell>
        <mxCell id="uQWh4zlJFBgXrBR1a3Rs-11" value="&lt;font style=&quot;font-size: 13px;&quot;&gt;Chatbot analyzes the prompt and&amp;nbsp;&lt;/font&gt;&lt;div style=&quot;font-size: 13px;&quot;&gt;&lt;font style=&quot;font-size: 13px;&quot;&gt;makes the appropriate api call to the triggre server&lt;/font&gt;&lt;/div&gt;&lt;div style=&quot;font-size: 13px;&quot;&gt;&lt;font style=&quot;font-size: 13px;&quot;&gt;&lt;br&gt;&lt;/font&gt;&lt;/div&gt;" style="edgeLabel;html=1;align=center;verticalAlign=middle;resizable=0;points=[];" vertex="1" connectable="0" parent="uQWh4zlJFBgXrBR1a3Rs-8">
          <mxGeometry x="-0.1855" y="-2" relative="1" as="geometry">
            <mxPoint as="offset" />
          </mxGeometry>
        </mxCell>
      </root>
    </mxGraphModel>
  </diagram>
</mxfile>
